<svg width="18" height="17" viewBox="0 0 18 17" fill="none" xmlns="http://www.w3.org/2000/svg">
<path d="M9.30005 0.000610352C4.60565 0.000610352 0.800049 3.80621 0.800049 8.50061C0.800049 13.195 4.60565 17.0006 9.30005 17.0006C13.9944 17.0006 17.8 13.1952 17.8 8.50061C17.8 3.80601 13.9944 0.000610352 9.30005 0.000610352ZM9.25765 13.254C9.25765 13.254 8.86325 13.5162 8.59365 13.515C8.56965 13.526 8.55545 13.5324 8.55545 13.5324L8.55605 13.515C8.49945 13.5124 8.44245 13.5044 8.38505 13.49L8.29985 13.469C7.82905 13.3522 7.57985 12.8854 7.69705 12.4148L8.35245 9.77261L8.64825 8.57921C8.92345 7.47121 7.77565 8.81481 7.54025 8.30441C7.38485 7.96701 8.43305 7.25901 9.19885 6.72521C9.19885 6.72521 9.59285 6.46341 9.86265 6.46441C9.88685 6.45321 9.90105 6.44701 9.90105 6.44701L9.90005 6.46441C9.95705 6.46701 10.014 6.47501 10.0714 6.48921L10.1566 6.51041C10.6274 6.62721 10.9142 7.10341 10.7974 7.57401L10.1422 10.2164L9.84585 11.4098C9.57105 12.5178 10.6998 11.169 10.935 11.68C11.0904 12.017 10.0232 12.7202 9.25765 13.254ZM10.9188 4.99521C10.7552 5.65421 10.0884 6.05601 9.42965 5.89241C8.77045 5.72881 8.36865 5.06221 8.53225 4.40301C8.69585 3.74381 9.36265 3.34221 10.0214 3.50581C10.6806 3.66921 11.0822 4.33601 10.9188 4.99521Z" fill="#36A9E1"/>
</svg>
