<svg width="22" height="22" viewBox="0 0 22 22" fill="none" xmlns="http://www.w3.org/2000/svg">
<path d="M10.9952 3.20312C15.3014 3.20312 18.8063 6.70795 18.8063 11.0142C18.8063 15.3205 15.3014 18.8253 10.9952 18.8253C6.6889 18.8253 3.18408 15.3205 3.18408 11.0142C3.18408 6.70795 6.6889 3.20312 10.9952 3.20312ZM10.9952 4.50497C7.39251 4.50497 4.48593 7.41155 4.48593 11.0142C4.48593 14.6169 7.39251 17.5235 10.9952 17.5235C14.5978 17.5235 17.5044 14.6169 17.5044 11.0142C17.5044 7.41155 14.5978 4.50497 10.9952 4.50497ZM10.3442 5.80682H11.6461V10.3633H14.9007V11.6651H10.3442V5.80682Z" fill="#AD6435"/>
</svg>
