<svg width="22" height="22" viewBox="0 0 22 22" fill="none" xmlns="http://www.w3.org/2000/svg">
<path d="M18.7654 3.69141L19.2536 6.45783H17.9314L17.7077 5.19667L10.3441 6.45783H2.63471L18.7654 3.69141ZM1.88208 7.10876H20.108V17.5235H1.88208V7.10876ZM5.09602 8.41061C5.1177 8.5165 5.1367 8.6237 5.1367 8.73607C5.1367 9.63483 4.40815 10.3634 3.50939 10.3634C3.39702 10.3634 3.28987 10.3444 3.18393 10.3227V14.3096C3.28983 14.2879 3.39702 14.2689 3.50939 14.2689C4.40815 14.2689 5.1367 14.9975 5.1367 15.8962C5.1367 16.0086 5.1177 16.1158 5.09602 16.2217H16.894C16.8723 16.1158 16.8533 16.0086 16.8533 15.8962C16.8533 14.9975 17.5819 14.2689 18.4806 14.2689C18.593 14.2689 18.7002 14.2879 18.8061 14.3096V10.3227C18.7002 10.3444 18.593 10.3634 18.4806 10.3634C17.5819 10.3634 16.8533 9.63483 16.8533 8.73607C16.8533 8.6237 16.8723 8.51655 16.894 8.41061H5.09602ZM10.995 9.06153C12.7848 9.06153 14.2496 10.5264 14.2496 12.3162C14.2496 14.1059 12.7848 15.5708 10.995 15.5708C9.20526 15.5708 7.7404 14.1059 7.7404 12.3162C7.7404 10.5264 9.20526 9.06153 10.995 9.06153ZM10.995 10.3634C9.90879 10.3634 9.04225 11.2299 9.04225 12.3162C9.04225 13.4024 9.90879 14.2689 10.995 14.2689C12.0812 14.2689 12.9478 13.4024 12.9478 12.3162C12.9478 11.2299 12.0812 10.3634 10.995 10.3634Z" fill="#AD6435"/>
</svg>
