<svg width="20" height="21" viewBox="0 0 20 21" fill="none" xmlns="http://www.w3.org/2000/svg">
<path d="M20 4.64001C19.25 5.01501 18.5 5.14001 17.625 5.26501C18.5 4.76501 19.125 4.01501 19.375 3.01501C18.625 3.51501 17.75 3.76501 16.75 4.01501C16 3.26501 14.875 2.76501 13.75 2.76501C11.625 2.76501 9.75 4.64001 9.75 6.89001C9.75 7.26502 9.75 7.51501 9.875 7.76501C6.5 7.64001 3.375 6.01501 1.375 3.51501C1 4.14001 0.875 4.76501 0.875 5.64001C0.875 7.01501 1.625 8.26501 2.75 9.01501C2.125 9.01501 1.5 8.76501 0.875 8.51501C0.875 10.515 2.25 12.14 4.125 12.515C3.75 12.64 3.375 12.64 3 12.64C2.75 12.64 2.5 12.64 2.25 12.515C2.75 14.14 4.25 15.39 6.125 15.39C4.75 16.515 3 17.14 1 17.14H0C1.875 18.265 4 19.015 6.25 19.015C13.75 19.015 17.875 12.765 17.875 7.39001V6.89001C18.75 6.26501 19.5 5.51501 20 4.64001Z" fill="#00ACEE"/>
</svg>
