<svg width="24" height="24" viewBox="0 0 24 24" fill="none" xmlns="http://www.w3.org/2000/svg">
<path fill-rule="evenodd" clip-rule="evenodd" d="M2.81789 4.14H23.3099L20.2949 16.198H5.83489L2.81689 4.14H2.81789Z" stroke="black"/>
<path d="M7.44509 21.823C8.55021 21.823 9.44609 20.9276 9.44609 19.823C9.44609 18.7184 8.55021 17.823 7.44509 17.823C6.33997 17.823 5.44409 18.7184 5.44409 19.823C5.44409 20.9276 6.33997 21.823 7.44509 21.823Z" fill="black"/>
<path d="M2 5.498C3.10457 5.498 4 4.60302 4 3.499C4 2.39498 3.10457 1.5 2 1.5C0.89543 1.5 0 2.39498 0 3.499C0 4.60302 0.89543 5.498 2 5.498Z" fill="black"/>
<path d="M17.2419 21.821C18.3465 21.821 19.2419 20.926 19.2419 19.822C19.2419 18.718 18.3465 17.823 17.2419 17.823C16.1374 17.823 15.2419 18.718 15.2419 19.822C15.2419 20.926 16.1374 21.821 17.2419 21.821Z" fill="black"/>
</svg>
