<svg width="20" height="21" viewBox="0 0 20 21" fill="none" xmlns="http://www.w3.org/2000/svg">
<path d="M10.4336 0.890015C4.99359 0.890015 2.25073 4.79001 2.25073 8.04246C2.25073 10.0116 2.99624 11.7633 4.59502 12.4163C4.85747 12.5235 5.09257 12.4202 5.1689 12.13C5.22155 11.929 5.34665 11.4223 5.40237 11.211C5.4791 10.9239 5.4491 10.8233 5.23767 10.5731C4.77665 10.0292 4.48196 9.32512 4.48196 8.32777C4.48196 5.4343 6.64685 2.8441 10.1195 2.8441C13.1938 2.8441 14.8832 4.72287 14.8832 7.23185C14.8832 10.5331 13.4222 13.3192 11.2534 13.3192C10.0554 13.3192 9.1591 12.3286 9.44645 11.1137C9.79053 9.66328 10.4569 8.09777 10.4569 7.05103C10.4569 6.11389 9.9542 5.33206 8.91298 5.33206C7.68849 5.33206 6.70502 6.59879 6.70502 8.29553C6.70502 9.37634 7.07012 10.1074 7.07012 10.1074C7.07012 10.1074 5.81686 15.4165 5.59767 16.3463C5.15992 18.1978 5.53196 20.4678 5.56339 20.697C5.58155 20.8329 5.75604 20.8651 5.83522 20.7627C5.94849 20.6151 7.40665 18.8149 7.90237 17.0159C8.04257 16.5065 8.70726 13.869 8.70726 13.869C9.10522 14.6276 10.2679 15.2959 11.5044 15.2959C15.1848 15.2959 17.6822 11.9406 17.6822 7.44899C17.6824 4.05287 14.8054 0.890015 10.4336 0.890015Z" fill="#CC2127"/>
</svg>
