<svg width="22" height="22" viewBox="0 0 22 22" fill="none" xmlns="http://www.w3.org/2000/svg">
<path d="M6.43866 3.20312H7.74051V3.85405H14.2497V3.20312H15.5516V3.85405H18.1553V18.1744H3.83496V3.85405H6.43866V3.20312ZM5.13681 5.1559V6.45775H16.8534V5.1559H15.5516V5.80682H14.2497V5.1559H7.74051V5.80682H6.43866V5.1559H5.13681ZM5.13681 7.75959V16.8725H16.8534V7.75959H5.13681ZM9.04236 9.06144H10.3442V10.3633H9.04236V9.06144ZM11.6461 9.06144H12.9479V10.3633H11.6461V9.06144ZM14.2497 9.06144H15.5516V10.3633H14.2497V9.06144ZM6.43866 11.6651H7.74051V12.967H6.43866V11.6651ZM9.04236 11.6651H10.3442V12.967H9.04236V11.6651ZM11.6461 11.6651H12.9479V12.967H11.6461V11.6651ZM14.2497 11.6651H15.5516V12.967H14.2497V11.6651ZM6.43866 14.2688H7.74051V15.5707H6.43866V14.2688ZM9.04236 14.2688H10.3442V15.5707H9.04236V14.2688ZM11.6461 14.2688H12.9479V15.5707H11.6461V14.2688Z" fill="#AD6435"/>
</svg>
