<svg width="22" height="22" viewBox="0 0 22 22" fill="none" xmlns="http://www.w3.org/2000/svg">
<path d="M0.5802 3.20312H12.2968V5.80682H15.8159L16.0193 5.98989L19.9249 9.89544L20.1079 10.0989V16.8725H18.0534C17.7624 17.992 16.7577 18.8253 15.5515 18.8253C14.3452 18.8253 13.3405 17.992 13.0495 16.8725H7.63866C7.34766 17.992 6.34295 18.8253 5.13667 18.8253C3.93039 18.8253 2.92568 17.992 2.63468 16.8725H0.5802V3.20312ZM1.88205 4.50497V15.5707H2.63468C2.92568 14.4512 3.93039 13.6179 5.13667 13.6179C6.34295 13.6179 7.34766 14.4512 7.63866 15.5707H10.995V4.50497H1.88205ZM12.2968 7.10867V15.5707H13.0495C13.3405 14.4512 14.3452 13.6179 15.5515 13.6179C16.7577 13.6179 17.7624 14.4512 18.0534 15.5707H18.8061V10.6481L15.2667 7.10867H12.2968ZM5.13667 14.9198C4.40999 14.9198 3.83482 15.4949 3.83482 16.2216C3.83482 16.9483 4.40999 17.5235 5.13667 17.5235C5.86335 17.5235 6.43852 16.9483 6.43852 16.2216C6.43852 15.4949 5.86335 14.9198 5.13667 14.9198ZM15.5515 14.9198C14.8248 14.9198 14.2496 15.4949 14.2496 16.2216C14.2496 16.9483 14.8248 17.5235 15.5515 17.5235C16.2781 17.5235 16.8533 16.9483 16.8533 16.2216C16.8533 15.4949 16.2781 14.9198 15.5515 14.9198Z" fill="#AD6435"/>
</svg>
