<svg width="17" height="17" viewBox="0 0 17 17" fill="none" xmlns="http://www.w3.org/2000/svg">
<path fill-rule="evenodd" clip-rule="evenodd" d="M6.25215 0C9.43936 0 12.0323 2.62489 12.0323 5.8513C12.0323 7.20706 11.5734 8.45547 10.8061 9.44867L16.2872 15.007C16.6111 15.3356 16.6074 15.8645 16.2788 16.1884C16.1162 16.349 15.9043 16.4289 15.6924 16.4289C15.4768 16.4289 15.2612 16.346 15.0976 16.1802L9.60701 10.6119C8.66029 11.2975 7.50243 11.7028 6.25215 11.7028C3.06495 11.7028 0.472168 9.0779 0.472168 5.8513C0.472168 2.62489 3.06495 0 6.25215 0ZM6.25215 10.2177C8.62071 10.2177 10.5474 8.25888 10.5474 5.8513C10.5474 3.44391 8.62071 1.48513 6.25215 1.48513C3.88396 1.48513 1.95712 3.44391 1.95712 5.8513C1.95712 8.25888 3.88396 10.2177 6.25215 10.2177ZM4.72277 7.3439C4.85999 7.20463 5.05322 7.12491 5.24794 7.12491C5.44284 7.12491 5.63401 7.20463 5.77329 7.3439C5.91069 7.48131 5.99041 7.67248 5.99041 7.86739C5.99041 8.06416 5.91069 8.25533 5.77329 8.39274C5.63401 8.53201 5.44284 8.60986 5.24794 8.60986C5.05322 8.60986 4.85999 8.53201 4.72277 8.39274C4.58537 8.25533 4.50546 8.06416 4.50546 7.86739C4.50546 7.67248 4.58537 7.48131 4.72277 7.3439ZM3.35488 5.91926C3.09594 3.97766 5.03044 3.0961 5.11296 3.05951C5.43967 2.91501 5.81996 3.06156 5.9667 3.38734C6.11344 3.71312 5.96801 4.09714 5.64316 4.24594C5.59686 4.26703 4.51312 4.77521 4.64268 5.7475C4.6901 6.10333 4.44031 6.43005 4.08466 6.47747C4.05553 6.48139 4.0266 6.48325 3.99803 6.48325C3.6773 6.48325 3.39838 6.24578 3.35488 5.91926Z" fill="black"/>
</svg>
